<?xml version="1.0" encoding="iso-8859-1"?>
<!-- Generator: Adobe Illustrator 19.0.0, SVG Export Plug-In . SVG Version: 6.00 Build 0)  -->
<svg xmlns="http://www.w3.org/2000/svg" xmlns:xlink="http://www.w3.org/1999/xlink" version="1.1" id="Layer_1" x="0px" y="0px" viewBox="0 0 330 330" style="enable-background:new 0 0 330 330;" xml:space="preserve" width="512px" height="512px">
<g id="XMLID_470_">
	<path id="XMLID_472_" d="M217.935,150.598h-4.605v29.171h4.605c2.92,0,4.729-0.894,4.729-5.339v-18.555   C222.664,151.48,220.855,150.598,217.935,150.598z" fill="#5ea044"/>
	<polygon id="XMLID_473_" points="148.818,169.575 152.883,169.575 150.859,162.835  " fill="#5ea044"/>
	<path id="XMLID_474_" d="M330,82.487c0-8.284-6.715-15-15-15H15c-8.284,0-15,6.716-15,15v165.025c0,8.284,6.716,15,15,15h300   c8.285,0,15-6.716,15-15V82.487z M128.82,156.425c0,10.645-6.24,17-16.695,17h-4.789v12.479c0,3.133-2.642,5.587-6.014,5.587   c-3.43,0-6.015-2.401-6.015-5.587V144.34c0-2.93,2.354-5.275,5.476-5.458c0.078-0.005,0.156-0.007,0.233-0.007h11.23   c10.378,0,16.573,6.332,16.573,16.939V156.425z M163.631,191.491c-2.467,0-4.556-1.48-5.32-3.772   c-0.013-0.039-0.025-0.079-0.037-0.119l-1.955-6.545h-10.947l-1.938,6.484c-0.646,2.369-2.816,3.952-5.438,3.952   c-3.039,0-6.318-2.183-6.318-5.709c0-0.285,0-0.965,0.281-1.745l12.713-41.302c0.803-2.572,3.236-4.226,6.203-4.226   c2.949,0,5.396,1.623,6.236,4.135c0.01,0.032,0.02,0.063,0.03,0.096l12.695,41.443c0.058,0.189,0.102,0.382,0.131,0.576   c0.056,0.259,0.105,0.577,0.105,0.962C170.072,189.173,166.742,191.491,163.631,191.491z M190.023,185.904   c0,3.133-2.641,5.587-6.014,5.587c-3.428,0-6.014-2.401-6.014-5.587V144.34c0-3.167,2.529-5.465,6.014-5.465   c3.429,0,6.014,2.35,6.014,5.465V185.904z M234.691,174.43c0,10.684-6.264,17.061-16.756,17.061h-10.803   c-3.27,0-5.832-2.427-5.832-5.525V144.34c0-3.064,2.563-5.465,5.832-5.465h10.803c10.492,0,16.756,6.355,16.756,17V174.43z" fill="#5ea044"/>
	<path id="XMLID_481_" d="M112.125,150.598h-4.789v11.349h4.789c2.881,0,4.666-0.894,4.666-5.339v-0.732   C116.791,151.461,115.08,150.598,112.125,150.598z" fill="#5ea044"/>
</g>
<g>
</g>
<g>
</g>
<g>
</g>
<g>
</g>
<g>
</g>
<g>
</g>
<g>
</g>
<g>
</g>
<g>
</g>
<g>
</g>
<g>
</g>
<g>
</g>
<g>
</g>
<g>
</g>
<g>
</g>
</svg>
